<svg width="93" height="37" viewBox="0 0 93 37" fill="none" xmlns="http://www.w3.org/2000/svg">
<path d="M2.64673 2.90281C2.89987 2.90281 3.12877 2.97039 3.33324 3.10577C3.53777 3.24121 3.68894 3.42519 3.78635 3.65736L5.25182 7.33318C5.4037 7.71423 5.1211 8.12744 4.70854 8.12744H3.81546V11.03C3.81546 11.3506 3.55384 11.6105 3.23109 11.6105H2.06236C1.73962 11.6105 1.478 11.3506 1.478 11.03V8.12744H0.584901C0.17234 8.12744 -0.110276 7.71423 0.0416236 7.33318L1.5071 3.65736C1.60451 3.42519 1.75569 3.24121 1.96022 3.10577C2.16468 2.9704 2.39358 2.90281 2.64673 2.90281ZM2.64673 0.000244141C2.96813 0.000244141 3.24301 0.114158 3.47191 0.341522C3.7008 0.568892 3.81546 0.841989 3.81546 1.16127C3.81546 1.48055 3.7008 1.75365 3.47191 1.98102C3.24301 2.20838 2.96813 2.3223 2.64673 2.3223C2.32533 2.3223 2.05044 2.20838 1.82155 1.98102C1.59265 1.75365 1.478 1.48055 1.478 1.16127C1.478 0.841989 1.59265 0.568892 1.82155 0.341522C2.05044 0.114158 2.32533 0.000244141 2.64673 0.000244141Z" fill="#5E20BE"/>
<path d="M9.324 2.90257C9.57715 2.90257 9.80605 2.97015 10.0105 3.10552C10.215 3.24097 10.3662 3.42494 10.4636 3.65712L11.9291 7.33293C12.081 7.71398 11.7984 8.12719 11.3858 8.12719H10.4927V11.0298C10.4927 11.3504 10.2311 11.6103 9.90837 11.6103H8.73964C8.41689 11.6103 8.15527 11.3504 8.15527 11.0298V8.12719H7.26218C6.84962 8.12719 6.567 7.71398 6.7189 7.33293L8.18438 3.65712C8.28179 3.42494 8.43296 3.24096 8.63749 3.10552C8.84196 2.97015 9.07086 2.90257 9.324 2.90257ZM9.324 0C9.6454 0 9.92029 0.113914 10.1492 0.341278C10.3781 0.568648 10.4927 0.841745 10.4927 1.16103C10.4927 1.48031 10.3781 1.75341 10.1492 1.98078C9.92029 2.20814 9.6454 2.32206 9.324 2.32206C9.0026 2.32206 8.72772 2.20814 8.49882 1.98078C8.26993 1.75341 8.15527 1.48031 8.15527 1.16103C8.15527 0.841745 8.26993 0.568648 8.49882 0.341278C8.72772 0.113914 9.0026 0 9.324 0Z" fill="#5E20BE"/>
<path d="M16.0013 2.90257C16.2545 2.90257 16.4834 2.97015 16.6878 3.10552C16.8923 3.24097 17.0435 3.42494 17.1409 3.65712L18.6064 7.33293C18.7583 7.71398 18.4757 8.12719 18.0631 8.12719H17.17V11.0298C17.17 11.3504 16.9084 11.6103 16.5857 11.6103H15.4169C15.0942 11.6103 14.8326 11.3504 14.8326 11.0298V8.12719H13.9395C13.5269 8.12719 13.2443 7.71398 13.3962 7.33293L14.8617 3.65712C14.9591 3.42494 15.1103 3.24096 15.3148 3.10552C15.5193 2.97015 15.7482 2.90257 16.0013 2.90257ZM16.0013 0C16.3227 0 16.5976 0.113914 16.8265 0.341278C17.0554 0.568648 17.17 0.841745 17.17 1.16103C17.17 1.48031 17.0554 1.75341 16.8265 1.98078C16.5976 2.20814 16.3227 2.32206 16.0013 2.32206C15.6799 2.32206 15.405 2.20814 15.1761 1.98078C14.9472 1.75341 14.8326 1.48031 14.8326 1.16103C14.8326 0.841745 14.9472 0.568648 15.1761 0.341278C15.405 0.113914 15.6799 0 16.0013 0Z" fill="#5E20BE"/>
<path d="M22.6786 2.90257C22.9318 2.90257 23.1607 2.97015 23.3652 3.10552C23.5697 3.24097 23.7209 3.42494 23.8183 3.65712L25.2837 7.33293C25.4356 7.71398 25.153 8.12719 24.7405 8.12719H23.8474V11.0298C23.8474 11.3504 23.5858 11.6103 23.263 11.6103H22.0943C21.7715 11.6103 21.5099 11.3504 21.5099 11.0298V8.12719H20.6168C20.2043 8.12719 19.9216 7.71398 20.0735 7.33293L21.539 3.65712C21.6364 3.42494 21.7876 3.24096 21.9921 3.10552C22.1966 2.97015 22.4255 2.90257 22.6786 2.90257ZM22.6786 0C23 0 23.2749 0.113914 23.5038 0.341278C23.7327 0.568648 23.8474 0.841745 23.8474 1.16103C23.8474 1.48031 23.7327 1.75341 23.5038 1.98078C23.2749 2.20814 23 2.32206 22.6786 2.32206C22.3572 2.32206 22.0824 2.20814 21.8535 1.98078C21.6246 1.75341 21.5099 1.48031 21.5099 1.16103C21.5099 0.841745 21.6246 0.568648 21.8535 0.341278C22.0824 0.113914 22.3572 0 22.6786 0Z" fill="#5E20BE"/>
<path d="M29.3559 2.90257C29.609 2.90257 29.8379 2.97015 30.0424 3.10552C30.2469 3.24097 30.3981 3.42494 30.4955 3.65712L31.961 7.33293C32.1129 7.71398 31.8303 8.12719 31.4177 8.12719H30.5246V11.0298C30.5246 11.3504 30.263 11.6103 29.9403 11.6103H28.7715C28.4488 11.6103 28.1872 11.3504 28.1872 11.0298V8.12719H27.2941C26.8815 8.12719 26.5989 7.71398 26.7508 7.33293L28.2163 3.65712C28.3137 3.42494 28.4649 3.24096 28.6694 3.10552C28.8739 2.97015 29.1027 2.90257 29.3559 2.90257ZM29.3559 0C29.6773 0 29.9522 0.113914 30.1811 0.341278C30.41 0.568648 30.5246 0.841745 30.5246 1.16103C30.5246 1.48031 30.41 1.75341 30.1811 1.98078C29.9522 2.20814 29.6773 2.32206 29.3559 2.32206C29.0345 2.32206 28.7596 2.20814 28.5307 1.98078C28.3018 1.75341 28.1872 1.48031 28.1872 1.16103C28.1872 0.841745 28.3018 0.568648 28.5307 0.341278C28.7596 0.113914 29.0345 0 29.3559 0Z" fill="#5E20BE"/>
<path d="M36.0332 2.90257C36.2863 2.90257 36.5152 2.97015 36.7197 3.10552C36.9242 3.24097 37.0754 3.42494 37.1728 3.65712L38.6383 7.33293C38.7902 7.71398 38.5076 8.12719 38.095 8.12719H37.2019V11.0298C37.2019 11.3504 36.9403 11.6103 36.6176 11.6103H35.4488C35.1261 11.6103 34.8645 11.3504 34.8645 11.0298V8.12719H33.9714C33.5588 8.12719 33.2762 7.71398 33.4281 7.33293L34.8936 3.65712C34.991 3.42494 35.1422 3.24096 35.3467 3.10552C35.5512 2.97015 35.7801 2.90257 36.0332 2.90257ZM36.0332 0C36.3546 0 36.6295 0.113914 36.8584 0.341278C37.0873 0.568648 37.2019 0.841745 37.2019 1.16103C37.2019 1.48031 37.0873 1.75341 36.8584 1.98078C36.6295 2.20814 36.3546 2.32206 36.0332 2.32206C35.7118 2.32206 35.4369 2.20814 35.208 1.98078C34.9791 1.75341 34.8645 1.48031 34.8645 1.16103C34.8645 0.841745 34.9791 0.568648 35.208 0.341278C35.4369 0.113914 35.7118 0 36.0332 0Z" fill="#5E20BE"/>
<path d="M42.7105 2.90257C42.9637 2.90257 43.1926 2.97015 43.397 3.10552C43.6015 3.24097 43.7527 3.42494 43.8501 3.65712L45.3156 7.33293C45.4675 7.71398 45.1849 8.12719 44.7723 8.12719H43.8792V11.0298C43.8792 11.3504 43.6176 11.6103 43.2949 11.6103H42.1261C41.8034 11.6103 41.5418 11.3504 41.5418 11.0298V8.12719H40.6487C40.2361 8.12719 39.9535 7.71398 40.1054 7.33293L41.5709 3.65712C41.6683 3.42494 41.8195 3.24096 42.024 3.10552C42.2285 2.97015 42.4574 2.90257 42.7105 2.90257ZM42.7105 0C43.0319 0 43.3068 0.113914 43.5357 0.341278C43.7646 0.568648 43.8792 0.841745 43.8792 1.16103C43.8792 1.48031 43.7646 1.75341 43.5357 1.98078C43.3068 2.20814 43.0319 2.32206 42.7105 2.32206C42.3891 2.32206 42.1142 2.20814 41.8853 1.98078C41.6564 1.75341 41.5418 1.48031 41.5418 1.16103C41.5418 0.841745 41.6564 0.568648 41.8853 0.341278C42.1142 0.113914 42.3891 0 42.7105 0Z" fill="#5E20BE"/>
<path d="M49.3878 2.90257C49.6409 2.90257 49.8698 2.97015 50.0743 3.10552C50.2788 3.24097 50.43 3.42494 50.5274 3.65712L51.9929 7.33293C52.1447 7.71398 51.8621 8.12719 51.4496 8.12719H50.5565V11.0298C50.5565 11.3504 50.2949 11.6103 49.9721 11.6103H48.8034C48.4806 11.6103 48.219 11.3504 48.219 11.0298V8.12719H47.3259C46.9134 8.12719 46.6308 7.71398 46.7827 7.33293L48.2481 3.65712C48.3455 3.42494 48.4967 3.24096 48.7012 3.10552C48.9057 2.97015 49.1346 2.90257 49.3878 2.90257ZM49.3878 0C49.7092 0 49.984 0.113914 50.2129 0.341278C50.4418 0.568648 50.5565 0.841745 50.5565 1.16103C50.5565 1.48031 50.4418 1.75341 50.2129 1.98078C49.984 2.20814 49.7092 2.32206 49.3878 2.32206C49.0664 2.32206 48.7915 2.20814 48.5626 1.98078C48.3337 1.75341 48.219 1.48031 48.219 1.16103C48.219 0.841745 48.3337 0.568648 48.5626 0.341278C48.7915 0.113914 49.0664 0 49.3878 0Z" fill="#5E20BE"/>
<path d="M56.0651 2.90257C56.3183 2.90257 56.5472 2.97015 56.7516 3.10552C56.9562 3.24097 57.1073 3.42494 57.2048 3.65712L58.6702 7.33293C58.8221 7.71398 58.5395 8.12719 58.1269 8.12719H57.2339V11.0298C57.2339 11.3504 56.9722 11.6103 56.6495 11.6103H55.4808C55.158 11.6103 54.8964 11.3504 54.8964 11.0298V8.12719H54.0033C53.5907 8.12719 53.3081 7.71398 53.46 7.33293L54.9255 3.65712C55.0229 3.42494 55.1741 3.24096 55.3786 3.10552C55.5831 2.97015 55.812 2.90257 56.0651 2.90257ZM56.0651 0C56.3865 0 56.6614 0.113914 56.8903 0.341278C57.1192 0.568648 57.2339 0.841745 57.2339 1.16103C57.2339 1.48031 57.1192 1.75341 56.8903 1.98078C56.6614 2.20814 56.3865 2.32206 56.0651 2.32206C55.7437 2.32206 55.4688 2.20814 55.2399 1.98078C55.011 1.75341 54.8964 1.48031 54.8964 1.16103C54.8964 0.841745 55.011 0.568648 55.2399 0.341278C55.4688 0.113914 55.7437 0 56.0651 0Z" fill="#5E20BE"/>
<path d="M62.7424 2.90257C62.9956 2.90257 63.2245 2.97015 63.4289 3.10552C63.6335 3.24097 63.7846 3.42494 63.8821 3.65712L65.3475 7.33293C65.4994 7.71398 65.2168 8.12719 64.8042 8.12719H63.9112V11.0298C63.9112 11.3504 63.6495 11.6103 63.3268 11.6103H62.1581C61.8353 11.6103 61.5737 11.3504 61.5737 11.0298V8.12719H60.6806C60.268 8.12719 59.9854 7.71398 60.1373 7.33293L61.6028 3.65712C61.7002 3.42494 61.8514 3.24096 62.0559 3.10552C62.2604 2.97015 62.4893 2.90257 62.7424 2.90257ZM62.7424 0C63.0638 0 63.3387 0.113914 63.5676 0.341278C63.7965 0.568648 63.9112 0.841745 63.9112 1.16103C63.9112 1.48031 63.7965 1.75341 63.5676 1.98078C63.3387 2.20814 63.0638 2.32206 62.7424 2.32206C62.421 2.32206 62.1461 2.20814 61.9172 1.98078C61.6884 1.75341 61.5737 1.48031 61.5737 1.16103C61.5737 0.841745 61.6884 0.568648 61.9172 0.341278C62.1461 0.113914 62.421 0 62.7424 0Z" fill="#5E20BE"/>
<path d="M69.4197 2.90257C69.6728 2.90257 69.9017 2.97015 70.1062 3.10552C70.3107 3.24097 70.4619 3.42494 70.5593 3.65712L72.0248 7.33293C72.1766 7.71398 71.8941 8.12719 71.4815 8.12719H70.5884V11.0298C70.5884 11.3504 70.3268 11.6103 70.004 11.6103H68.8353C68.5126 11.6103 68.2509 11.3504 68.2509 11.0298V8.12719H67.3579C66.9453 8.12719 66.6627 7.71398 66.8146 7.33293L68.28 3.65712C68.3775 3.42494 68.5286 3.24096 68.7332 3.10552C68.9376 2.97015 69.1665 2.90257 69.4197 2.90257ZM69.4197 0C69.7411 0 70.016 0.113914 70.2449 0.341278C70.4738 0.568648 70.5884 0.841745 70.5884 1.16103C70.5884 1.48031 70.4738 1.75341 70.2449 1.98078C70.016 2.20814 69.7411 2.32206 69.4197 2.32206C69.0983 2.32206 68.8234 2.20814 68.5945 1.98078C68.3656 1.75341 68.2509 1.48031 68.2509 1.16103C68.2509 0.841745 68.3656 0.568648 68.5945 0.341278C68.8234 0.113914 69.0983 0 69.4197 0Z" fill="#5E20BE"/>
<path d="M76.097 2.90257C76.3501 2.90257 76.579 2.97015 76.7835 3.10552C76.988 3.24097 77.1392 3.42494 77.2366 3.65712L78.7021 7.33293C78.854 7.71398 78.5714 8.12719 78.1588 8.12719H77.2657V11.0298C77.2657 11.3504 77.0041 11.6103 76.6813 11.6103H75.5126C75.1899 11.6103 74.9283 11.3504 74.9283 11.0298V8.12719H74.0352C73.6226 8.12719 73.34 7.71398 73.4919 7.33293L74.9574 3.65712C75.0548 3.42494 75.2059 3.24096 75.4105 3.10552C75.6149 2.97015 75.8438 2.90257 76.097 2.90257ZM76.097 0C76.4184 0 76.6933 0.113914 76.9222 0.341278C77.1511 0.568648 77.2657 0.841745 77.2657 1.16103C77.2657 1.48031 77.1511 1.75341 76.9222 1.98078C76.6933 2.20814 76.4184 2.32206 76.097 2.32206C75.7756 2.32206 75.5007 2.20814 75.2718 1.98078C75.0429 1.75341 74.9283 1.48031 74.9283 1.16103C74.9283 0.841745 75.0429 0.568648 75.2718 0.341278C75.5007 0.113914 75.7756 0 76.097 0Z" fill="#5E20BE"/>
<path d="M82.7743 2.90257C83.0274 2.90257 83.2563 2.97015 83.4608 3.10552C83.6653 3.24097 83.8165 3.42494 83.9139 3.65712L85.3794 7.33293C85.5313 7.71398 85.2487 8.12719 84.8361 8.12719H83.943V11.0298C83.943 11.3504 83.6814 11.6103 83.3587 11.6103H82.1899C81.8672 11.6103 81.6056 11.3504 81.6056 11.0298V8.12719H80.7125C80.2999 8.12719 80.0173 7.71398 80.1692 7.33293L81.6347 3.65712C81.7321 3.42494 81.8833 3.24096 82.0878 3.10552C82.2922 2.97015 82.5211 2.90257 82.7743 2.90257ZM82.7743 0C83.0957 0 83.3706 0.113914 83.5995 0.341278C83.8284 0.568648 83.943 0.841745 83.943 1.16103C83.943 1.48031 83.8284 1.75341 83.5995 1.98078C83.3706 2.20814 83.0957 2.32206 82.7743 2.32206C82.4529 2.32206 82.178 2.20814 81.9491 1.98078C81.7202 1.75341 81.6056 1.48031 81.6056 1.16103C81.6056 0.841745 81.7202 0.568648 81.9491 0.341278C82.178 0.113914 82.4529 0 82.7743 0Z" fill="#5E20BE"/>
<path d="M89.4515 2.90257C89.7047 2.90257 89.9336 2.97015 90.138 3.10552C90.3426 3.24097 90.4938 3.42494 90.5912 3.65712L92.0566 7.33293C92.2085 7.71398 91.9259 8.12719 91.5134 8.12719H90.6203V11.0298C90.6203 11.3504 90.3586 11.6103 90.0359 11.6103H88.8672C88.5444 11.6103 88.2828 11.3504 88.2828 11.0298V8.12719H87.3897C86.9771 8.12719 86.6945 7.71398 86.8464 7.33293L88.3119 3.65712C88.4093 3.42494 88.5605 3.24096 88.765 3.10552C88.9695 2.97015 89.1984 2.90257 89.4515 2.90257ZM89.4515 0C89.7729 0 90.0478 0.113914 90.2767 0.341278C90.5056 0.568648 90.6203 0.841745 90.6203 1.16103C90.6203 1.48031 90.5056 1.75341 90.2767 1.98078C90.0478 2.20814 89.7729 2.32206 89.4515 2.32206C89.1301 2.32206 88.8553 2.20814 88.6264 1.98078C88.3975 1.75341 88.2828 1.48031 88.2828 1.16103C88.2828 0.841745 88.3975 0.568648 88.6264 0.341278C88.8553 0.113914 89.1301 0 89.4515 0Z" fill="#5E20BE"/>
<path d="M2.64673 15.2541C2.89987 15.2541 3.12877 15.3217 3.33324 15.4571C3.53777 15.5925 3.68894 15.7765 3.78635 16.0087L5.25182 19.6845C5.4037 20.0655 5.1211 20.4788 4.70854 20.4788H3.81546V23.3813C3.81546 23.7019 3.55384 23.9618 3.23109 23.9618H2.06236C1.73962 23.9618 1.478 23.7019 1.478 23.3813V20.4788H0.584901C0.17234 20.4788 -0.110276 20.0655 0.0416236 19.6845L1.5071 16.0087C1.60451 15.7765 1.75569 15.5925 1.96022 15.4571C2.16468 15.3217 2.39358 15.2541 2.64673 15.2541ZM2.64673 12.3516C2.96813 12.3516 3.24301 12.4655 3.47191 12.6928C3.7008 12.9202 3.81546 13.1933 3.81546 13.5126C3.81546 13.8319 3.7008 14.105 3.47191 14.3323C3.24301 14.5597 2.96813 14.6736 2.64673 14.6736C2.32533 14.6736 2.05044 14.5597 1.82155 14.3323C1.59265 14.105 1.478 13.8319 1.478 13.5126C1.478 13.1933 1.59265 12.9202 1.82155 12.6928C2.05044 12.4655 2.32533 12.3516 2.64673 12.3516Z" fill="#5E20BE"/>
<path d="M9.324 15.2541C9.57715 15.2541 9.80605 15.3217 10.0105 15.4571C10.215 15.5925 10.3662 15.7765 10.4636 16.0087L11.9291 19.6845C12.081 20.0655 11.7984 20.4788 11.3858 20.4788H10.4927V23.3813C10.4927 23.7019 10.2311 23.9618 9.90837 23.9618H8.73964C8.41689 23.9618 8.15527 23.7019 8.15527 23.3813V20.4788H7.26218C6.84962 20.4788 6.567 20.0655 6.7189 19.6845L8.18438 16.0087C8.28179 15.7765 8.43296 15.5925 8.63749 15.4571C8.84196 15.3217 9.07086 15.2541 9.324 15.2541ZM9.324 12.3516C9.6454 12.3516 9.92029 12.4655 10.1492 12.6928C10.3781 12.9202 10.4927 13.1933 10.4927 13.5126C10.4927 13.8319 10.3781 14.105 10.1492 14.3323C9.92029 14.5597 9.6454 14.6736 9.324 14.6736C9.0026 14.6736 8.72772 14.5597 8.49882 14.3323C8.26993 14.105 8.15527 13.8319 8.15527 13.5126C8.15527 13.1933 8.26993 12.9202 8.49882 12.6928C8.72772 12.4655 9.0026 12.3516 9.324 12.3516Z" fill="#5E20BE"/>
<path d="M16.0013 15.2541C16.2545 15.2541 16.4834 15.3217 16.6878 15.4571C16.8923 15.5925 17.0435 15.7765 17.1409 16.0087L18.6064 19.6845C18.7583 20.0655 18.4757 20.4788 18.0631 20.4788H17.17V23.3813C17.17 23.7019 16.9084 23.9618 16.5857 23.9618H15.4169C15.0942 23.9618 14.8326 23.7019 14.8326 23.3813V20.4788H13.9395C13.5269 20.4788 13.2443 20.0655 13.3962 19.6845L14.8617 16.0087C14.9591 15.7765 15.1103 15.5925 15.3148 15.4571C15.5193 15.3217 15.7482 15.2541 16.0013 15.2541ZM16.0013 12.3516C16.3227 12.3516 16.5976 12.4655 16.8265 12.6928C17.0554 12.9202 17.17 13.1933 17.17 13.5126C17.17 13.8319 17.0554 14.105 16.8265 14.3323C16.5976 14.5597 16.3227 14.6736 16.0013 14.6736C15.6799 14.6736 15.405 14.5597 15.1761 14.3323C14.9472 14.105 14.8326 13.8319 14.8326 13.5126C14.8326 13.1933 14.9472 12.9202 15.1761 12.6928C15.405 12.4655 15.6799 12.3516 16.0013 12.3516Z" fill="#5E20BE"/>
<path d="M22.6787 13.4663C23.0877 13.4663 23.4576 13.5755 23.788 13.7942C24.1185 14.0131 24.3627 14.3104 24.5201 14.6856L26.8882 20.6252C27.1336 21.2409 26.6769 21.9086 26.0103 21.9086H24.5672V26.5988C24.5672 27.1169 24.1444 27.5368 23.6229 27.5368H21.7344C21.2129 27.5368 20.7901 27.1169 20.7901 26.5988V21.9086H19.347C18.6804 21.9086 18.2237 21.2409 18.4691 20.6252L20.8372 14.6856C20.9946 14.3104 21.2389 14.0131 21.5693 13.7942C21.8997 13.5755 22.2696 13.4663 22.6787 13.4663ZM22.6787 8.77612C23.198 8.77612 23.6422 8.96019 24.012 9.32758C24.3819 9.69498 24.5672 10.1363 24.5672 10.6522C24.5672 11.1681 24.3819 11.6094 24.012 11.9768C23.6422 12.3442 23.198 12.5283 22.6787 12.5283C22.1593 12.5283 21.7151 12.3442 21.3453 11.9768C20.9754 11.6094 20.7901 11.1681 20.7901 10.6522C20.7901 10.1363 20.9754 9.69498 21.3453 9.32758C21.7151 8.96019 22.1593 8.77612 22.6787 8.77612Z" fill="white" stroke="white" stroke-width="1.19749"/>
<path d="M29.3559 15.2541C29.609 15.2541 29.8379 15.3217 30.0424 15.4571C30.2469 15.5925 30.3981 15.7765 30.4955 16.0087L31.961 19.6845C32.1129 20.0655 31.8303 20.4788 31.4177 20.4788H30.5246V23.3813C30.5246 23.7019 30.263 23.9618 29.9403 23.9618H28.7715C28.4488 23.9618 28.1872 23.7019 28.1872 23.3813V20.4788H27.2941C26.8815 20.4788 26.5989 20.0655 26.7508 19.6845L28.2163 16.0087C28.3137 15.7765 28.4649 15.5925 28.6694 15.4571C28.8739 15.3217 29.1027 15.2541 29.3559 15.2541ZM29.3559 12.3516C29.6773 12.3516 29.9522 12.4655 30.1811 12.6928C30.41 12.9202 30.5246 13.1933 30.5246 13.5126C30.5246 13.8319 30.41 14.105 30.1811 14.3323C29.9522 14.5597 29.6773 14.6736 29.3559 14.6736C29.0345 14.6736 28.7596 14.5597 28.5307 14.3323C28.3018 14.105 28.1872 13.8319 28.1872 13.5126C28.1872 13.1933 28.3018 12.9202 28.5307 12.6928C28.7596 12.4655 29.0345 12.3516 29.3559 12.3516Z" fill="#5E20BE"/>
<path d="M36.0332 15.2541C36.2863 15.2541 36.5152 15.3217 36.7197 15.4571C36.9242 15.5925 37.0754 15.7765 37.1728 16.0087L38.6383 19.6845C38.7902 20.0655 38.5076 20.4788 38.095 20.4788H37.2019V23.3813C37.2019 23.7019 36.9403 23.9618 36.6176 23.9618H35.4488C35.1261 23.9618 34.8645 23.7019 34.8645 23.3813V20.4788H33.9714C33.5588 20.4788 33.2762 20.0655 33.4281 19.6845L34.8936 16.0087C34.991 15.7765 35.1422 15.5925 35.3467 15.4571C35.5512 15.3217 35.7801 15.2541 36.0332 15.2541ZM36.0332 12.3516C36.3546 12.3516 36.6295 12.4655 36.8584 12.6928C37.0873 12.9202 37.2019 13.1933 37.2019 13.5126C37.2019 13.8319 37.0873 14.105 36.8584 14.3323C36.6295 14.5597 36.3546 14.6736 36.0332 14.6736C35.7118 14.6736 35.4369 14.5597 35.208 14.3323C34.9791 14.105 34.8645 13.8319 34.8645 13.5126C34.8645 13.1933 34.9791 12.9202 35.208 12.6928C35.4369 12.4655 35.7118 12.3516 36.0332 12.3516Z" fill="#5E20BE"/>
<path d="M42.7105 15.2541C42.9637 15.2541 43.1926 15.3217 43.397 15.4571C43.6015 15.5925 43.7527 15.7765 43.8501 16.0087L45.3156 19.6845C45.4675 20.0655 45.1849 20.4788 44.7723 20.4788H43.8792V23.3813C43.8792 23.7019 43.6176 23.9618 43.2949 23.9618H42.1261C41.8034 23.9618 41.5418 23.7019 41.5418 23.3813V20.4788H40.6487C40.2361 20.4788 39.9535 20.0655 40.1054 19.6845L41.5709 16.0087C41.6683 15.7765 41.8195 15.5925 42.024 15.4571C42.2285 15.3217 42.4574 15.2541 42.7105 15.2541ZM42.7105 12.3516C43.0319 12.3516 43.3068 12.4655 43.5357 12.6928C43.7646 12.9202 43.8792 13.1933 43.8792 13.5126C43.8792 13.8319 43.7646 14.105 43.5357 14.3323C43.3068 14.5597 43.0319 14.6736 42.7105 14.6736C42.3891 14.6736 42.1142 14.5597 41.8853 14.3323C41.6564 14.105 41.5418 13.8319 41.5418 13.5126C41.5418 13.1933 41.6564 12.9202 41.8853 12.6928C42.1142 12.4655 42.3891 12.3516 42.7105 12.3516Z" fill="#5E20BE"/>
<path d="M49.3878 15.2541C49.6409 15.2541 49.8698 15.3217 50.0743 15.4571C50.2788 15.5925 50.43 15.7765 50.5274 16.0087L51.9929 19.6845C52.1447 20.0655 51.8621 20.4788 51.4496 20.4788H50.5565V23.3813C50.5565 23.7019 50.2949 23.9618 49.9721 23.9618H48.8034C48.4806 23.9618 48.219 23.7019 48.219 23.3813V20.4788H47.3259C46.9134 20.4788 46.6308 20.0655 46.7827 19.6845L48.2481 16.0087C48.3455 15.7765 48.4967 15.5925 48.7012 15.4571C48.9057 15.3217 49.1346 15.2541 49.3878 15.2541ZM49.3878 12.3516C49.7092 12.3516 49.984 12.4655 50.2129 12.6928C50.4418 12.9202 50.5565 13.1933 50.5565 13.5126C50.5565 13.8319 50.4418 14.105 50.2129 14.3323C49.984 14.5597 49.7092 14.6736 49.3878 14.6736C49.0664 14.6736 48.7915 14.5597 48.5626 14.3323C48.3337 14.105 48.219 13.8319 48.219 13.5126C48.219 13.1933 48.3337 12.9202 48.5626 12.6928C48.7915 12.4655 49.0664 12.3516 49.3878 12.3516Z" fill="#5E20BE"/>
<path d="M56.0651 15.2541C56.3183 15.2541 56.5472 15.3217 56.7516 15.4571C56.9562 15.5925 57.1073 15.7765 57.2048 16.0087L58.6702 19.6845C58.8221 20.0655 58.5395 20.4788 58.1269 20.4788H57.2339V23.3813C57.2339 23.7019 56.9722 23.9618 56.6495 23.9618H55.4808C55.158 23.9618 54.8964 23.7019 54.8964 23.3813V20.4788H54.0033C53.5907 20.4788 53.3081 20.0655 53.46 19.6845L54.9255 16.0087C55.0229 15.7765 55.1741 15.5925 55.3786 15.4571C55.5831 15.3217 55.812 15.2541 56.0651 15.2541ZM56.0651 12.3516C56.3865 12.3516 56.6614 12.4655 56.8903 12.6928C57.1192 12.9202 57.2339 13.1933 57.2339 13.5126C57.2339 13.8319 57.1192 14.105 56.8903 14.3323C56.6614 14.5597 56.3865 14.6736 56.0651 14.6736C55.7437 14.6736 55.4688 14.5597 55.2399 14.3323C55.011 14.105 54.8964 13.8319 54.8964 13.5126C54.8964 13.1933 55.011 12.9202 55.2399 12.6928C55.4688 12.4655 55.7437 12.3516 56.0651 12.3516Z" fill="#5E20BE"/>
<path d="M62.7424 15.2541C62.9956 15.2541 63.2245 15.3217 63.4289 15.4571C63.6335 15.5925 63.7846 15.7765 63.8821 16.0087L65.3475 19.6845C65.4994 20.0655 65.2168 20.4788 64.8042 20.4788H63.9112V23.3813C63.9112 23.7019 63.6495 23.9618 63.3268 23.9618H62.1581C61.8353 23.9618 61.5737 23.7019 61.5737 23.3813V20.4788H60.6806C60.268 20.4788 59.9854 20.0655 60.1373 19.6845L61.6028 16.0087C61.7002 15.7765 61.8514 15.5925 62.0559 15.4571C62.2604 15.3217 62.4893 15.2541 62.7424 15.2541ZM62.7424 12.3516C63.0638 12.3516 63.3387 12.4655 63.5676 12.6928C63.7965 12.9202 63.9112 13.1933 63.9112 13.5126C63.9112 13.8319 63.7965 14.105 63.5676 14.3323C63.3387 14.5597 63.0638 14.6736 62.7424 14.6736C62.421 14.6736 62.1461 14.5597 61.9172 14.3323C61.6884 14.105 61.5737 13.8319 61.5737 13.5126C61.5737 13.1933 61.6884 12.9202 61.9172 12.6928C62.1461 12.4655 62.421 12.3516 62.7424 12.3516Z" fill="#5E20BE"/>
<path d="M69.4197 15.2541C69.6728 15.2541 69.9017 15.3217 70.1062 15.4571C70.3107 15.5925 70.4619 15.7765 70.5593 16.0087L72.0248 19.6845C72.1766 20.0655 71.8941 20.4788 71.4815 20.4788H70.5884V23.3813C70.5884 23.7019 70.3268 23.9618 70.004 23.9618H68.8353C68.5126 23.9618 68.2509 23.7019 68.2509 23.3813V20.4788H67.3579C66.9453 20.4788 66.6627 20.0655 66.8146 19.6845L68.28 16.0087C68.3775 15.7765 68.5286 15.5925 68.7332 15.4571C68.9376 15.3217 69.1665 15.2541 69.4197 15.2541ZM69.4197 12.3516C69.7411 12.3516 70.016 12.4655 70.2449 12.6928C70.4738 12.9202 70.5884 13.1933 70.5884 13.5126C70.5884 13.8319 70.4738 14.105 70.2449 14.3323C70.016 14.5597 69.7411 14.6736 69.4197 14.6736C69.0983 14.6736 68.8234 14.5597 68.5945 14.3323C68.3656 14.105 68.2509 13.8319 68.2509 13.5126C68.2509 13.1933 68.3656 12.9202 68.5945 12.6928C68.8234 12.4655 69.0983 12.3516 69.4197 12.3516Z" fill="#5E20BE"/>
<path d="M76.097 15.2541C76.3501 15.2541 76.579 15.3217 76.7835 15.4571C76.988 15.5925 77.1392 15.7765 77.2366 16.0087L78.7021 19.6845C78.854 20.0655 78.5714 20.4788 78.1588 20.4788H77.2657V23.3813C77.2657 23.7019 77.0041 23.9618 76.6813 23.9618H75.5126C75.1899 23.9618 74.9283 23.7019 74.9283 23.3813V20.4788H74.0352C73.6226 20.4788 73.34 20.0655 73.4919 19.6845L74.9574 16.0087C75.0548 15.7765 75.2059 15.5925 75.4105 15.4571C75.6149 15.3217 75.8438 15.2541 76.097 15.2541ZM76.097 12.3516C76.4184 12.3516 76.6933 12.4655 76.9222 12.6928C77.1511 12.9202 77.2657 13.1933 77.2657 13.5126C77.2657 13.8319 77.1511 14.105 76.9222 14.3323C76.6933 14.5597 76.4184 14.6736 76.097 14.6736C75.7756 14.6736 75.5007 14.5597 75.2718 14.3323C75.0429 14.105 74.9283 13.8319 74.9283 13.5126C74.9283 13.1933 75.0429 12.9202 75.2718 12.6928C75.5007 12.4655 75.7756 12.3516 76.097 12.3516Z" fill="#5E20BE"/>
<path d="M82.7743 15.2541C83.0274 15.2541 83.2563 15.3217 83.4608 15.4571C83.6653 15.5925 83.8165 15.7765 83.9139 16.0087L85.3794 19.6845C85.5313 20.0655 85.2487 20.4788 84.8361 20.4788H83.943V23.3813C83.943 23.7019 83.6814 23.9618 83.3587 23.9618H82.1899C81.8672 23.9618 81.6056 23.7019 81.6056 23.3813V20.4788H80.7125C80.2999 20.4788 80.0173 20.0655 80.1692 19.6845L81.6347 16.0087C81.7321 15.7765 81.8833 15.5925 82.0878 15.4571C82.2922 15.3217 82.5211 15.2541 82.7743 15.2541ZM82.7743 12.3516C83.0957 12.3516 83.3706 12.4655 83.5995 12.6928C83.8284 12.9202 83.943 13.1933 83.943 13.5126C83.943 13.8319 83.8284 14.105 83.5995 14.3323C83.3706 14.5597 83.0957 14.6736 82.7743 14.6736C82.4529 14.6736 82.178 14.5597 81.9491 14.3323C81.7202 14.105 81.6056 13.8319 81.6056 13.5126C81.6056 13.1933 81.7202 12.9202 81.9491 12.6928C82.178 12.4655 82.4529 12.3516 82.7743 12.3516Z" fill="#5E20BE"/>
<path d="M89.4515 15.2541C89.7047 15.2541 89.9336 15.3217 90.138 15.4571C90.3426 15.5925 90.4938 15.7765 90.5912 16.0087L92.0566 19.6845C92.2085 20.0655 91.9259 20.4788 91.5134 20.4788H90.6203V23.3813C90.6203 23.7019 90.3586 23.9618 90.0359 23.9618H88.8672C88.5444 23.9618 88.2828 23.7019 88.2828 23.3813V20.4788H87.3897C86.9771 20.4788 86.6945 20.0655 86.8464 19.6845L88.3119 16.0087C88.4093 15.7765 88.5605 15.5925 88.765 15.4571C88.9695 15.3217 89.1984 15.2541 89.4515 15.2541ZM89.4515 12.3516C89.7729 12.3516 90.0478 12.4655 90.2767 12.6928C90.5056 12.9202 90.6203 13.1933 90.6203 13.5126C90.6203 13.8319 90.5056 14.105 90.2767 14.3323C90.0478 14.5597 89.7729 14.6736 89.4515 14.6736C89.1301 14.6736 88.8553 14.5597 88.6264 14.3323C88.3975 14.105 88.2828 13.8319 88.2828 13.5126C88.2828 13.1933 88.3975 12.9202 88.6264 12.6928C88.8553 12.4655 89.1301 12.3516 89.4515 12.3516Z" fill="#5E20BE"/>
<path d="M2.64673 27.6054C2.89987 27.6054 3.12877 27.673 3.33324 27.8084C3.53777 27.9438 3.68894 28.1278 3.78635 28.36L5.25182 32.0358C5.4037 32.4169 5.1211 32.8301 4.70854 32.8301H3.81546V35.7326C3.81546 36.0533 3.55384 36.3132 3.23109 36.3132H2.06236C1.73962 36.3132 1.478 36.0533 1.478 35.7326V32.8301H0.584901C0.17234 32.8301 -0.110276 32.4169 0.0416236 32.0358L1.5071 28.36C1.60451 28.1278 1.75569 27.9438 1.96022 27.8084C2.16468 27.673 2.39358 27.6054 2.64673 27.6054ZM2.64673 24.7029C2.96813 24.7029 3.24301 24.8168 3.47191 25.0442C3.7008 25.2715 3.81546 25.5446 3.81546 25.8639C3.81546 26.1832 3.7008 26.4563 3.47191 26.6837C3.24301 26.911 2.96813 27.0249 2.64673 27.0249C2.32533 27.0249 2.05044 26.911 1.82155 26.6837C1.59265 26.4563 1.478 26.1832 1.478 25.8639C1.478 25.5446 1.59265 25.2715 1.82155 25.0442C2.05044 24.8168 2.32533 24.7029 2.64673 24.7029Z" fill="#5E20BE"/>
<path d="M9.324 27.6054C9.57715 27.6054 9.80605 27.673 10.0105 27.8084C10.215 27.9438 10.3662 28.1278 10.4636 28.36L11.9291 32.0358C12.081 32.4169 11.7984 32.8301 11.3858 32.8301H10.4927V35.7326C10.4927 36.0533 10.2311 36.3132 9.90837 36.3132H8.73964C8.41689 36.3132 8.15527 36.0533 8.15527 35.7326V32.8301H7.26218C6.84962 32.8301 6.567 32.4169 6.7189 32.0358L8.18438 28.36C8.28179 28.1278 8.43296 27.9438 8.63749 27.8084C8.84196 27.673 9.07086 27.6054 9.324 27.6054ZM9.324 24.7029C9.6454 24.7029 9.92029 24.8168 10.1492 25.0442C10.3781 25.2715 10.4927 25.5446 10.4927 25.8639C10.4927 26.1832 10.3781 26.4563 10.1492 26.6837C9.92029 26.911 9.6454 27.0249 9.324 27.0249C9.0026 27.0249 8.72772 26.911 8.49882 26.6837C8.26993 26.4563 8.15527 26.1832 8.15527 25.8639C8.15527 25.5446 8.26993 25.2715 8.49882 25.0442C8.72772 24.8168 9.0026 24.7029 9.324 24.7029Z" fill="#5E20BE"/>
<path d="M16.0013 27.6054C16.2545 27.6054 16.4834 27.673 16.6878 27.8084C16.8923 27.9438 17.0435 28.1278 17.1409 28.36L18.6064 32.0358C18.7583 32.4169 18.4757 32.8301 18.0631 32.8301H17.17V35.7326C17.17 36.0533 16.9084 36.3132 16.5857 36.3132H15.4169C15.0942 36.3132 14.8326 36.0533 14.8326 35.7326V32.8301H13.9395C13.5269 32.8301 13.2443 32.4169 13.3962 32.0358L14.8617 28.36C14.9591 28.1278 15.1103 27.9438 15.3148 27.8084C15.5193 27.673 15.7482 27.6054 16.0013 27.6054ZM16.0013 24.7029C16.3227 24.7029 16.5976 24.8168 16.8265 25.0442C17.0554 25.2715 17.17 25.5446 17.17 25.8639C17.17 26.1832 17.0554 26.4563 16.8265 26.6837C16.5976 26.911 16.3227 27.0249 16.0013 27.0249C15.6799 27.0249 15.405 26.911 15.1761 26.6837C14.9472 26.4563 14.8326 26.1832 14.8326 25.8639C14.8326 25.5446 14.9472 25.2715 15.1761 25.0442C15.405 24.8168 15.6799 24.7029 16.0013 24.7029Z" fill="#5E20BE"/>
<path d="M22.6786 27.6054C22.9318 27.6054 23.1607 27.673 23.3652 27.8084C23.5697 27.9438 23.7209 28.1278 23.8183 28.36L25.2837 32.0358C25.4356 32.4169 25.153 32.8301 24.7405 32.8301H23.8474V35.7326C23.8474 36.0533 23.5858 36.3132 23.263 36.3132H22.0943C21.7715 36.3132 21.5099 36.0533 21.5099 35.7326V32.8301H20.6168C20.2043 32.8301 19.9216 32.4169 20.0735 32.0358L21.539 28.36C21.6364 28.1278 21.7876 27.9438 21.9921 27.8084C22.1966 27.673 22.4255 27.6054 22.6786 27.6054ZM22.6786 24.7029C23 24.7029 23.2749 24.8168 23.5038 25.0442C23.7327 25.2715 23.8474 25.5446 23.8474 25.8639C23.8474 26.1832 23.7327 26.4563 23.5038 26.6837C23.2749 26.911 23 27.0249 22.6786 27.0249C22.3572 27.0249 22.0824 26.911 21.8535 26.6837C21.6246 26.4563 21.5099 26.1832 21.5099 25.8639C21.5099 25.5446 21.6246 25.2715 21.8535 25.0442C22.0824 24.8168 22.3572 24.7029 22.6786 24.7029Z" fill="#5E20BE"/>
<path d="M29.3559 27.6054C29.609 27.6054 29.8379 27.673 30.0424 27.8084C30.2469 27.9438 30.3981 28.1278 30.4955 28.36L31.961 32.0358C32.1129 32.4169 31.8303 32.8301 31.4177 32.8301H30.5246V35.7326C30.5246 36.0533 30.263 36.3132 29.9403 36.3132H28.7715C28.4488 36.3132 28.1872 36.0533 28.1872 35.7326V32.8301H27.2941C26.8815 32.8301 26.5989 32.4169 26.7508 32.0358L28.2163 28.36C28.3137 28.1278 28.4649 27.9438 28.6694 27.8084C28.8739 27.673 29.1027 27.6054 29.3559 27.6054ZM29.3559 24.7029C29.6773 24.7029 29.9522 24.8168 30.1811 25.0442C30.41 25.2715 30.5246 25.5446 30.5246 25.8639C30.5246 26.1832 30.41 26.4563 30.1811 26.6837C29.9522 26.911 29.6773 27.0249 29.3559 27.0249C29.0345 27.0249 28.7596 26.911 28.5307 26.6837C28.3018 26.4563 28.1872 26.1832 28.1872 25.8639C28.1872 25.5446 28.3018 25.2715 28.5307 25.0442C28.7596 24.8168 29.0345 24.7029 29.3559 24.7029Z" fill="#5E20BE"/>
<path d="M36.0332 27.6054C36.2863 27.6054 36.5152 27.673 36.7197 27.8084C36.9242 27.9438 37.0754 28.1278 37.1728 28.36L38.6383 32.0358C38.7902 32.4169 38.5076 32.8301 38.095 32.8301H37.2019V35.7326C37.2019 36.0533 36.9403 36.3132 36.6176 36.3132H35.4488C35.1261 36.3132 34.8645 36.0533 34.8645 35.7326V32.8301H33.9714C33.5588 32.8301 33.2762 32.4169 33.4281 32.0358L34.8936 28.36C34.991 28.1278 35.1422 27.9438 35.3467 27.8084C35.5512 27.673 35.7801 27.6054 36.0332 27.6054ZM36.0332 24.7029C36.3546 24.7029 36.6295 24.8168 36.8584 25.0442C37.0873 25.2715 37.2019 25.5446 37.2019 25.8639C37.2019 26.1832 37.0873 26.4563 36.8584 26.6837C36.6295 26.911 36.3546 27.0249 36.0332 27.0249C35.7118 27.0249 35.4369 26.911 35.208 26.6837C34.9791 26.4563 34.8645 26.1832 34.8645 25.8639C34.8645 25.5446 34.9791 25.2715 35.208 25.0442C35.4369 24.8168 35.7118 24.7029 36.0332 24.7029Z" fill="#5E20BE"/>
<path d="M42.7105 27.6054C42.9637 27.6054 43.1926 27.673 43.397 27.8084C43.6015 27.9438 43.7527 28.1278 43.8501 28.36L45.3156 32.0358C45.4675 32.4169 45.1849 32.8301 44.7723 32.8301H43.8792V35.7326C43.8792 36.0533 43.6176 36.3132 43.2949 36.3132H42.1261C41.8034 36.3132 41.5418 36.0533 41.5418 35.7326V32.8301H40.6487C40.2361 32.8301 39.9535 32.4169 40.1054 32.0358L41.5709 28.36C41.6683 28.1278 41.8195 27.9438 42.024 27.8084C42.2285 27.673 42.4574 27.6054 42.7105 27.6054ZM42.7105 24.7029C43.0319 24.7029 43.3068 24.8168 43.5357 25.0442C43.7646 25.2715 43.8792 25.5446 43.8792 25.8639C43.8792 26.1832 43.7646 26.4563 43.5357 26.6837C43.3068 26.911 43.0319 27.0249 42.7105 27.0249C42.3891 27.0249 42.1142 26.911 41.8853 26.6837C41.6564 26.4563 41.5418 26.1832 41.5418 25.8639C41.5418 25.5446 41.6564 25.2715 41.8853 25.0442C42.1142 24.8168 42.3891 24.7029 42.7105 24.7029Z" fill="#5E20BE"/>
<path d="M49.3878 27.6054C49.6409 27.6054 49.8698 27.673 50.0743 27.8084C50.2788 27.9438 50.43 28.1278 50.5274 28.36L51.9929 32.0358C52.1447 32.4169 51.8621 32.8301 51.4496 32.8301H50.5565V35.7326C50.5565 36.0533 50.2949 36.3132 49.9721 36.3132H48.8034C48.4806 36.3132 48.219 36.0533 48.219 35.7326V32.8301H47.3259C46.9134 32.8301 46.6308 32.4169 46.7827 32.0358L48.2481 28.36C48.3455 28.1278 48.4967 27.9438 48.7012 27.8084C48.9057 27.673 49.1346 27.6054 49.3878 27.6054ZM49.3878 24.7029C49.7092 24.7029 49.984 24.8168 50.2129 25.0442C50.4418 25.2715 50.5565 25.5446 50.5565 25.8639C50.5565 26.1832 50.4418 26.4563 50.2129 26.6837C49.984 26.911 49.7092 27.0249 49.3878 27.0249C49.0664 27.0249 48.7915 26.911 48.5626 26.6837C48.3337 26.4563 48.219 26.1832 48.219 25.8639C48.219 25.5446 48.3337 25.2715 48.5626 25.0442C48.7915 24.8168 49.0664 24.7029 49.3878 24.7029Z" fill="#5E20BE"/>
<path d="M56.0651 27.6054C56.3183 27.6054 56.5472 27.673 56.7516 27.8084C56.9562 27.9438 57.1073 28.1278 57.2048 28.36L58.6702 32.0358C58.8221 32.4169 58.5395 32.8301 58.1269 32.8301H57.2339V35.7326C57.2339 36.0533 56.9722 36.3132 56.6495 36.3132H55.4808C55.158 36.3132 54.8964 36.0533 54.8964 35.7326V32.8301H54.0033C53.5907 32.8301 53.3081 32.4169 53.46 32.0358L54.9255 28.36C55.0229 28.1278 55.1741 27.9438 55.3786 27.8084C55.5831 27.673 55.812 27.6054 56.0651 27.6054ZM56.0651 24.7029C56.3865 24.7029 56.6614 24.8168 56.8903 25.0442C57.1192 25.2715 57.2339 25.5446 57.2339 25.8639C57.2339 26.1832 57.1192 26.4563 56.8903 26.6837C56.6614 26.911 56.3865 27.0249 56.0651 27.0249C55.7437 27.0249 55.4688 26.911 55.2399 26.6837C55.011 26.4563 54.8964 26.1832 54.8964 25.8639C54.8964 25.5446 55.011 25.2715 55.2399 25.0442C55.4688 24.8168 55.7437 24.7029 56.0651 24.7029Z" fill="#5E20BE"/>
<path d="M62.7424 27.6054C62.9956 27.6054 63.2245 27.673 63.4289 27.8084C63.6335 27.9438 63.7846 28.1278 63.8821 28.36L65.3475 32.0358C65.4994 32.4169 65.2168 32.8301 64.8042 32.8301H63.9112V35.7326C63.9112 36.0533 63.6495 36.3132 63.3268 36.3132H62.1581C61.8353 36.3132 61.5737 36.0533 61.5737 35.7326V32.8301H60.6806C60.268 32.8301 59.9854 32.4169 60.1373 32.0358L61.6028 28.36C61.7002 28.1278 61.8514 27.9438 62.0559 27.8084C62.2604 27.673 62.4893 27.6054 62.7424 27.6054ZM62.7424 24.7029C63.0638 24.7029 63.3387 24.8168 63.5676 25.0442C63.7965 25.2715 63.9112 25.5446 63.9112 25.8639C63.9112 26.1832 63.7965 26.4563 63.5676 26.6837C63.3387 26.911 63.0638 27.0249 62.7424 27.0249C62.421 27.0249 62.1461 26.911 61.9172 26.6837C61.6884 26.4563 61.5737 26.1832 61.5737 25.8639C61.5737 25.5446 61.6884 25.2715 61.9172 25.0442C62.1461 24.8168 62.421 24.7029 62.7424 24.7029Z" fill="#5E20BE"/>
<path d="M69.4197 27.6054C69.6728 27.6054 69.9017 27.673 70.1062 27.8084C70.3107 27.9438 70.4619 28.1278 70.5593 28.36L72.0248 32.0358C72.1766 32.4169 71.8941 32.8301 71.4815 32.8301H70.5884V35.7326C70.5884 36.0533 70.3268 36.3132 70.004 36.3132H68.8353C68.5126 36.3132 68.2509 36.0533 68.2509 35.7326V32.8301H67.3579C66.9453 32.8301 66.6627 32.4169 66.8146 32.0358L68.28 28.36C68.3775 28.1278 68.5286 27.9438 68.7332 27.8084C68.9376 27.673 69.1665 27.6054 69.4197 27.6054ZM69.4197 24.7029C69.7411 24.7029 70.016 24.8168 70.2449 25.0442C70.4738 25.2715 70.5884 25.5446 70.5884 25.8639C70.5884 26.1832 70.4738 26.4563 70.2449 26.6837C70.016 26.911 69.7411 27.0249 69.4197 27.0249C69.0983 27.0249 68.8234 26.911 68.5945 26.6837C68.3656 26.4563 68.2509 26.1832 68.2509 25.8639C68.2509 25.5446 68.3656 25.2715 68.5945 25.0442C68.8234 24.8168 69.0983 24.7029 69.4197 24.7029Z" fill="#5E20BE"/>
<path d="M76.097 27.6054C76.3501 27.6054 76.579 27.673 76.7835 27.8084C76.988 27.9438 77.1392 28.1278 77.2366 28.36L78.7021 32.0358C78.854 32.4169 78.5714 32.8301 78.1588 32.8301H77.2657V35.7326C77.2657 36.0533 77.0041 36.3132 76.6813 36.3132H75.5126C75.1899 36.3132 74.9283 36.0533 74.9283 35.7326V32.8301H74.0352C73.6226 32.8301 73.34 32.4169 73.4919 32.0358L74.9574 28.36C75.0548 28.1278 75.2059 27.9438 75.4105 27.8084C75.6149 27.673 75.8438 27.6054 76.097 27.6054ZM76.097 24.7029C76.4184 24.7029 76.6933 24.8168 76.9222 25.0442C77.1511 25.2715 77.2657 25.5446 77.2657 25.8639C77.2657 26.1832 77.1511 26.4563 76.9222 26.6837C76.6933 26.911 76.4184 27.0249 76.097 27.0249C75.7756 27.0249 75.5007 26.911 75.2718 26.6837C75.0429 26.4563 74.9283 26.1832 74.9283 25.8639C74.9283 25.5446 75.0429 25.2715 75.2718 25.0442C75.5007 24.8168 75.7756 24.7029 76.097 24.7029Z" fill="#5E20BE"/>
<path d="M82.7743 27.6054C83.0274 27.6054 83.2563 27.673 83.4608 27.8084C83.6653 27.9438 83.8165 28.1278 83.9139 28.36L85.3794 32.0358C85.5313 32.4169 85.2487 32.8301 84.8361 32.8301H83.943V35.7326C83.943 36.0533 83.6814 36.3132 83.3587 36.3132H82.1899C81.8672 36.3132 81.6056 36.0533 81.6056 35.7326V32.8301H80.7125C80.2999 32.8301 80.0173 32.4169 80.1692 32.0358L81.6347 28.36C81.7321 28.1278 81.8833 27.9438 82.0878 27.8084C82.2922 27.673 82.5211 27.6054 82.7743 27.6054ZM82.7743 24.7029C83.0957 24.7029 83.3706 24.8168 83.5995 25.0442C83.8284 25.2715 83.943 25.5446 83.943 25.8639C83.943 26.1832 83.8284 26.4563 83.5995 26.6837C83.3706 26.911 83.0957 27.0249 82.7743 27.0249C82.4529 27.0249 82.178 26.911 81.9491 26.6837C81.7202 26.4563 81.6056 26.1832 81.6056 25.8639C81.6056 25.5446 81.7202 25.2715 81.9491 25.0442C82.178 24.8168 82.4529 24.7029 82.7743 24.7029Z" fill="#5E20BE"/>
</svg>
