<svg width="46.5" height="54.9" viewBox="20.51 4.68 46.5 54.9" fill="none" xmlns="http://www.w3.org/2000/svg">
<path d="M43.761 12.5249C49.2496 12.5249 54.2925 14.4528 58.2696 17.6714L61.9555 13.9442L65.6083 17.6407L61.9227 21.3678C65.1051 25.3929 67.011 30.496 67.011 36.0517C67.011 49.0453 56.6018 59.5784 43.761 59.5784C30.9209 59.5779 20.511 49.0447 20.511 36.0517C20.511 23.0585 30.9209 12.5254 43.761 12.5249ZM43.761 17.753C33.7743 17.7536 25.6777 25.9459 25.6777 36.0517C25.6777 46.1575 33.7743 54.3498 43.761 54.3503C53.7482 54.3503 61.8444 46.1577 61.8444 36.0517C61.8444 25.9456 53.7482 17.753 43.761 17.753ZM51.511 9.91079H36.011V4.68262H51.511V9.91079Z" fill="white"/>
<path d="M43.761 20.5518C45.7965 20.5518 47.8121 20.9527 49.6926 21.7316C51.5732 22.5106 53.2819 23.6523 54.7212 25.0916C56.1605 26.5309 57.3022 28.2396 58.0812 30.1202C58.8601 32.0007 59.261 34.0163 59.261 36.0518L43.761 36.0518L43.761 20.5518Z" fill="#5E20BE"/>
</svg>
